<svg width="28" height="30" viewBox="0 0 28 30" fill="none" xmlns="http://www.w3.org/2000/svg">
<path d="M26.0496 5.5C26.0496 7.70914 20.554 9.5 13.7748 9.5C6.99562 9.5 1.5 7.70914 1.5 5.5M26.0496 5.5C26.0496 3.29086 20.554 1.5 13.7748 1.5C6.99562 1.5 1.5 3.29086 1.5 5.5M26.0496 5.5V24.1667C26.0496 26.38 20.5941 28.1667 13.7748 28.1667C6.95547 28.1667 1.5 26.38 1.5 24.1667V5.5M26.0496 14.8333C26.0496 17.0467 20.5941 18.8333 13.7748 18.8333C6.95547 18.8333 1.5 17.0467 1.5 14.8333" stroke="#0F1929" stroke-width="3" stroke-linecap="round" stroke-linejoin="round"/>
</svg>
